<svg width="263" height="70" viewBox="0 0 263 70" fill="none" xmlns="http://www.w3.org/2000/svg">
<g clip-path="url(#clip0)">
<path d="M32.1417 23.6616H37.9721V0L23.4404 1.16103L32.1417 23.6616Z" fill="#81C448"/>
<path d="M21.5605 6.05454L33.2066 3.71777L35.1007 25.3071L30.025 26.2918L21.5605 6.05454Z" fill="#FDC010"/>
<path fill-rule="evenodd" clip-rule="evenodd" d="M34.9895 23.5752H32.174L25.0938 5.26633L33.2398 3.63184L34.9895 23.5752Z" fill="#809405"/>
<path d="M28.3238 27.9236L14.1325 0.602539L7.97656 11.8308L25.453 30.0987L28.3238 27.9236Z" fill="#3B8218"/>
<path d="M23.5292 30.7157L25.2161 28.3202L13.5109 12.5801L7.31055 23.0735L23.5292 30.7157Z" fill="#81C448"/>
<path fill-rule="evenodd" clip-rule="evenodd" d="M24.5946 29.2019L25.2155 28.3202L13.5102 12.5801L11.6709 15.6929L24.5946 29.2019Z" fill="#1E6407"/>
<path d="M24.8609 31.1716L5.2979 18.459L1.33203 32.1709L24.5797 32.8323L24.8609 31.1716Z" fill="#F99513"/>
<path fill-rule="evenodd" clip-rule="evenodd" d="M23.7263 30.4351L23.5282 30.7164L7.30957 23.0742L8.72156 20.6846L23.7263 30.4351Z" fill="#7E7305"/>
<path d="M25.5562 41.0475L23.884 35.5068L0 38.7695L3.7291 51.1146L25.5562 41.0475Z" fill="#FDC010"/>
<path d="M11.6013 56.1707L6.02246 45.7655L26.2957 37.7559L28.7078 42.2971L11.6013 56.1707Z" fill="#3AAD43"/>
<path fill-rule="evenodd" clip-rule="evenodd" d="M24.7469 38.3672L25.5558 41.0474L7.86729 49.2058L6.02246 45.7649L24.7469 38.3672Z" fill="#3A8204"/>
<path d="M30.3954 42.5176L15.4346 66.091L29.9514 70.0002L33.9913 42.9879L30.3954 42.5176Z" fill="#3AAD43"/>
<path d="M37.9717 44.575L32.2745 44.3398L27.2432 61.5937L37.9717 63.7394V44.575Z" fill="#FDC010"/>
<path fill-rule="evenodd" clip-rule="evenodd" d="M33.7793 44.402L32.2745 44.3398L27.2432 61.5937L31.093 62.3637L33.7793 44.402Z" fill="#3A8204"/>
</g>
<path d="M60.3419 37.8524C58.8485 37.8524 57.4961 37.5284 56.2845 36.8804C55.087 36.2182 54.1431 35.3095 53.4528 34.1543C52.7766 32.9991 52.4385 31.696 52.4385 30.2449C52.4385 28.7938 52.7836 27.4907 53.4739 26.3354C54.1643 25.1802 55.1082 24.2786 56.3056 23.6305C57.5172 22.9684 58.8697 22.6373 60.363 22.6373C61.5746 22.6373 62.6805 22.8487 63.6807 23.2713C64.681 23.6939 65.5263 24.3068 66.2166 25.1098L64.4415 26.7792C63.3708 25.624 62.0536 25.0464 60.4898 25.0464C59.4755 25.0464 58.5668 25.2718 57.7638 25.7226C56.9607 26.1593 56.3338 26.7722 55.883 27.5611C55.4322 28.35 55.2068 29.2446 55.2068 30.2449C55.2068 31.2451 55.4322 32.1397 55.883 32.9287C56.3338 33.7176 56.9607 34.3375 57.7638 34.7883C58.5668 35.225 59.4755 35.4434 60.4898 35.4434C62.0536 35.4434 63.3708 34.8587 64.4415 33.6894L66.2166 35.38C65.5263 36.183 64.6739 36.7958 63.6596 37.2185C62.6594 37.6411 61.5534 37.8524 60.3419 37.8524Z" fill="white"/>
<path d="M68.5953 21.9611H71.2368V37.6411H68.5953V21.9611Z" fill="white"/>
<path d="M85.629 26.3566V37.6411H83.1143V36.2041C82.6917 36.7113 82.1634 37.1058 81.5294 37.3875C80.8955 37.6552 80.2122 37.789 79.4796 37.789C77.9722 37.789 76.7817 37.3734 75.9083 36.5422C75.0489 35.697 74.6192 34.4502 74.6192 32.8019V26.3566H77.2607V32.4426C77.2607 33.457 77.4861 34.2177 77.937 34.7249C78.4019 35.218 79.057 35.4645 79.9023 35.4645C80.8461 35.4645 81.5928 35.1757 82.1422 34.5981C82.7058 34.0064 82.9875 33.1611 82.9875 32.0622V26.3566H85.629Z" fill="white"/>
<path d="M92.5744 37.789C91.6587 37.789 90.7641 37.6693 89.8906 37.4298C89.0172 37.1903 88.3198 36.8874 87.7985 36.5211L88.8129 34.5136C89.3201 34.8517 89.9258 35.1264 90.6302 35.3377C91.3487 35.5349 92.0531 35.6336 92.7435 35.6336C94.3213 35.6336 95.1102 35.218 95.1102 34.3868C95.1102 33.9923 94.906 33.7176 94.4974 33.5626C94.1029 33.4076 93.4619 33.2597 92.5744 33.1188C91.6446 32.978 90.8838 32.816 90.2921 32.6328C89.7145 32.4497 89.2074 32.1327 88.7706 31.6819C88.348 31.217 88.1367 30.576 88.1367 29.7588C88.1367 28.6882 88.5804 27.8358 89.468 27.2019C90.3696 26.5538 91.5812 26.2298 93.1027 26.2298C93.8775 26.2298 94.6524 26.3214 95.4272 26.5045C96.2021 26.6736 96.836 26.906 97.3291 27.2019L96.3148 29.2094C95.3568 28.6459 94.279 28.3641 93.0816 28.3641C92.3067 28.3641 91.715 28.4839 91.3065 28.7234C90.912 28.9488 90.7148 29.2517 90.7148 29.6321C90.7148 30.0547 90.9261 30.3576 91.3487 30.5407C91.7855 30.7098 92.4546 30.8718 93.3563 31.0268C94.2579 31.1677 94.9975 31.3297 95.5751 31.5128C96.1528 31.696 96.6458 32.0059 97.0544 32.4426C97.477 32.8793 97.6884 33.4992 97.6884 34.3022C97.6884 35.3588 97.2305 36.2041 96.3148 36.8381C95.3991 37.4721 94.1523 37.789 92.5744 37.789Z" fill="white"/>
<path d="M106.747 37.0283C106.437 37.2819 106.056 37.4721 105.605 37.5988C105.169 37.7256 104.704 37.789 104.211 37.789C102.971 37.789 102.013 37.465 101.337 36.817C100.661 36.1689 100.322 35.225 100.322 33.9853V28.5543H98.4628V26.4411H100.322V23.863H102.964V26.4411H105.986V28.5543H102.964V33.9219C102.964 34.4713 103.098 34.8939 103.365 35.1898C103.633 35.4715 104.021 35.6124 104.528 35.6124C105.119 35.6124 105.612 35.4575 106.007 35.1475L106.747 37.0283Z" fill="white"/>
<path d="M119.156 32.0622C119.156 32.2454 119.142 32.506 119.114 32.8441H110.26C110.415 33.6753 110.816 34.3375 111.464 34.8305C112.126 35.3095 112.944 35.549 113.916 35.549C115.155 35.549 116.177 35.1405 116.98 34.3234L118.396 35.9505C117.888 36.5563 117.247 37.0142 116.473 37.3241C115.698 37.6341 114.824 37.789 113.852 37.789C112.612 37.789 111.521 37.5425 110.577 37.0494C109.633 36.5563 108.9 35.8731 108.379 34.9996C107.872 34.1121 107.618 33.1118 107.618 31.9988C107.618 30.9 107.865 29.9138 108.358 29.0404C108.865 28.1528 109.562 27.4625 110.45 26.9694C111.338 26.4763 112.338 26.2298 113.451 26.2298C114.55 26.2298 115.529 26.4763 116.388 26.9694C117.262 27.4484 117.938 28.1317 118.417 29.0192C118.91 29.8927 119.156 30.907 119.156 32.0622ZM113.451 28.343C112.605 28.343 111.887 28.5966 111.295 29.1038C110.718 29.5968 110.365 30.259 110.239 31.0902H116.642C116.529 30.2731 116.184 29.6109 115.606 29.1038C115.029 28.5966 114.31 28.343 113.451 28.343Z" fill="white"/>
<path d="M124.208 28.0049C124.969 26.8215 126.308 26.2298 128.224 26.2298V28.7445C127.998 28.7022 127.794 28.6811 127.611 28.6811C126.582 28.6811 125.779 28.984 125.202 29.5898C124.624 30.1815 124.335 31.0409 124.335 32.1679V37.6411H121.694V26.3566H124.208V28.0049Z" fill="white"/>
<path d="M142.747 22.8487C144.029 22.8487 145.142 23.06 146.086 23.4826C147.044 23.9053 147.777 24.511 148.284 25.3C148.791 26.0889 149.045 27.0258 149.045 28.1105C149.045 29.1812 148.791 30.1181 148.284 30.9211C147.777 31.71 147.044 32.3158 146.086 32.7385C145.142 33.1611 144.029 33.3724 142.747 33.3724H139.409V37.6411H136.661V22.8487H142.747ZM142.621 31.0479C143.818 31.0479 144.727 30.7943 145.347 30.2871C145.967 29.78 146.276 29.0544 146.276 28.1105C146.276 27.1666 145.967 26.4411 145.347 25.9339C144.727 25.4268 143.818 25.1732 142.621 25.1732H139.409V31.0479H142.621Z" fill="white"/>
<path d="M155.742 26.2298C157.405 26.2298 158.673 26.6313 159.546 27.4343C160.434 28.2232 160.877 29.4207 160.877 31.0268V37.6411H158.384V36.2675C158.06 36.7606 157.595 37.141 156.989 37.4087C156.397 37.6622 155.679 37.789 154.834 37.789C153.988 37.789 153.249 37.6482 152.615 37.3664C151.981 37.0705 151.488 36.669 151.136 36.1619C150.797 35.6406 150.628 35.056 150.628 34.4079C150.628 33.3936 151.002 32.5835 151.748 31.9777C152.509 31.3578 153.7 31.0479 155.32 31.0479H158.236V30.8788C158.236 30.0899 157.996 29.4841 157.517 29.0615C157.052 28.6388 156.355 28.4275 155.425 28.4275C154.791 28.4275 154.164 28.5261 153.545 28.7234C152.939 28.9206 152.425 29.1953 152.002 29.5475L150.966 27.6245C151.558 27.1737 152.27 26.8285 153.101 26.589C153.932 26.3495 154.812 26.2298 155.742 26.2298ZM155.383 35.866C156.045 35.866 156.63 35.7181 157.137 35.4222C157.658 35.1123 158.025 34.6756 158.236 34.1121V32.8019H155.51C153.988 32.8019 153.228 33.302 153.228 34.3022C153.228 34.7812 153.418 35.1616 153.798 35.4434C154.179 35.7251 154.707 35.866 155.383 35.866Z" fill="white"/>
<path d="M166.782 28.0049C167.543 26.8215 168.881 26.2298 170.797 26.2298V28.7445C170.572 28.7022 170.368 28.6811 170.184 28.6811C169.156 28.6811 168.353 28.984 167.775 29.5898C167.198 30.1815 166.909 31.0409 166.909 32.1679V37.6411H164.267V26.3566H166.782V28.0049Z" fill="white"/>
<path d="M180.234 37.0283C179.924 37.2819 179.544 37.4721 179.093 37.5988C178.656 37.7256 178.191 37.789 177.698 37.789C176.459 37.789 175.501 37.465 174.824 36.817C174.148 36.1689 173.81 35.225 173.81 33.9853V28.5543H171.95V26.4411H173.81V23.863H176.452V26.4411H179.473V28.5543H176.452V33.9219C176.452 34.4713 176.585 34.8939 176.853 35.1898C177.121 35.4715 177.508 35.6124 178.015 35.6124C178.607 35.6124 179.1 35.4575 179.495 35.1475L180.234 37.0283Z" fill="white"/>
<path d="M188.81 26.2298C190.233 26.2298 191.374 26.6454 192.234 27.4766C193.093 28.3078 193.523 29.5405 193.523 31.1747V37.6411H190.881V31.5128C190.881 30.5266 190.649 29.787 190.184 29.2939C189.719 28.7868 189.057 28.5332 188.197 28.5332C187.225 28.5332 186.457 28.829 185.894 29.4207C185.33 29.9983 185.049 30.8366 185.049 31.9354V37.6411H182.407V26.3566H184.922V27.8147C185.359 27.2934 185.908 26.899 186.57 26.6313C187.232 26.3636 187.979 26.2298 188.81 26.2298Z" fill="white"/>
<path d="M207.585 32.0622C207.585 32.2454 207.571 32.506 207.543 32.8441H198.688C198.843 33.6753 199.245 34.3375 199.893 34.8305C200.555 35.3095 201.372 35.549 202.344 35.549C203.584 35.549 204.605 35.1405 205.408 34.3234L206.824 35.9505C206.317 36.5563 205.676 37.0142 204.901 37.3241C204.126 37.6341 203.253 37.789 202.281 37.789C201.041 37.789 199.949 37.5425 199.005 37.0494C198.062 36.5563 197.329 35.8731 196.808 34.9996C196.301 34.1121 196.047 33.1118 196.047 31.9988C196.047 30.9 196.293 29.9138 196.787 29.0404C197.294 28.1528 197.991 27.4625 198.879 26.9694C199.766 26.4763 200.766 26.2298 201.879 26.2298C202.978 26.2298 203.957 26.4763 204.817 26.9694C205.69 27.4484 206.366 28.1317 206.845 29.0192C207.339 29.8927 207.585 30.907 207.585 32.0622ZM201.879 28.343C201.034 28.343 200.316 28.5966 199.724 29.1038C199.146 29.5968 198.794 30.259 198.667 31.0902H205.07C204.958 30.2731 204.612 29.6109 204.035 29.1038C203.457 28.5966 202.739 28.343 201.879 28.343Z" fill="white"/>
<path d="M212.637 28.0049C213.398 26.8215 214.736 26.2298 216.652 26.2298V28.7445C216.427 28.7022 216.223 28.6811 216.039 28.6811C215.011 28.6811 214.208 28.984 213.63 29.5898C213.053 30.1815 212.764 31.0409 212.764 32.1679V37.6411H210.122V26.3566H212.637V28.0049Z" fill="white"/>
<path d="M222.421 37.789C221.505 37.789 220.611 37.6693 219.737 37.4298C218.864 37.1903 218.167 36.8874 217.645 36.5211L218.66 34.5136C219.167 34.8517 219.773 35.1264 220.477 35.3377C221.195 35.5349 221.9 35.6336 222.59 35.6336C224.168 35.6336 224.957 35.218 224.957 34.3868C224.957 33.9923 224.753 33.7176 224.344 33.5626C223.95 33.4076 223.309 33.2597 222.421 33.1188C221.491 32.978 220.731 32.816 220.139 32.6328C219.561 32.4497 219.054 32.1327 218.617 31.6819C218.195 31.217 217.983 30.576 217.983 29.7588C217.983 28.6882 218.427 27.8358 219.315 27.2019C220.216 26.5538 221.428 26.2298 222.949 26.2298C223.724 26.2298 224.499 26.3214 225.274 26.5045C226.049 26.6736 226.683 26.906 227.176 27.2019L226.161 29.2094C225.203 28.6459 224.126 28.3641 222.928 28.3641C222.153 28.3641 221.562 28.4839 221.153 28.7234C220.759 28.9488 220.561 29.2517 220.561 29.6321C220.561 30.0547 220.773 30.3576 221.195 30.5407C221.632 30.7098 222.301 30.8718 223.203 31.0268C224.105 31.1677 224.844 31.3297 225.422 31.5128C225.999 31.696 226.493 32.0059 226.901 32.4426C227.324 32.8793 227.535 33.4992 227.535 34.3022C227.535 35.3588 227.077 36.2041 226.161 36.8381C225.246 37.4721 223.999 37.789 222.421 37.789Z" fill="white"/>
<path d="M236.213 26.2298C237.636 26.2298 238.777 26.6454 239.636 27.4766C240.496 28.3078 240.925 29.5405 240.925 31.1747V37.6411H238.284V31.5128C238.284 30.5266 238.051 29.787 237.586 29.2939C237.122 28.7868 236.459 28.5332 235.6 28.5332C234.628 28.5332 233.86 28.829 233.297 29.4207C232.733 29.9983 232.451 30.8366 232.451 31.9354V37.6411H229.81V21.9611H232.451V27.6668C232.888 27.2019 233.423 26.8497 234.057 26.6102C234.705 26.3566 235.424 26.2298 236.213 26.2298Z" fill="white"/>
<path d="M244.276 26.3566H246.918V37.6411H244.276V26.3566ZM245.608 24.497C245.129 24.497 244.727 24.349 244.403 24.0532C244.079 23.7432 243.917 23.3629 243.917 22.9121C243.917 22.4612 244.079 22.0879 244.403 21.7921C244.727 21.4821 245.129 21.3271 245.608 21.3271C246.087 21.3271 246.488 21.4751 246.812 21.7709C247.136 22.0527 247.298 22.4119 247.298 22.8487C247.298 23.3136 247.136 23.708 246.812 24.0321C246.502 24.342 246.101 24.497 245.608 24.497Z" fill="white"/>
<path d="M256.64 26.2298C257.739 26.2298 258.718 26.4693 259.577 26.9483C260.451 27.4273 261.134 28.1035 261.627 28.977C262.12 29.8504 262.367 30.8577 262.367 31.9988C262.367 33.14 262.12 34.1543 261.627 35.0419C261.134 35.9153 260.451 36.5915 259.577 37.0705C258.718 37.5495 257.739 37.789 256.64 37.789C255.118 37.789 253.914 37.2819 253.026 36.2675V41.7407H250.385V26.3566H252.899V27.8358C253.336 27.3005 253.872 26.899 254.506 26.6313C255.154 26.3636 255.865 26.2298 256.64 26.2298ZM256.344 35.5279C257.316 35.5279 258.112 35.2039 258.732 34.5558C259.366 33.9078 259.683 33.0554 259.683 31.9988C259.683 30.9422 259.366 30.0899 258.732 29.4419C258.112 28.7938 257.316 28.4698 256.344 28.4698C255.71 28.4698 255.139 28.6177 254.632 28.9136C254.125 29.1953 253.724 29.6039 253.428 30.1392C253.132 30.6746 252.984 31.2944 252.984 31.9988C252.984 32.7032 253.132 33.3231 253.428 33.8585C253.724 34.3938 254.125 34.8094 254.632 35.1053C255.139 35.387 255.71 35.5279 256.344 35.5279Z" fill="white"/>
<path d="M59.5811 42.3298C60.8631 42.3298 61.9761 42.5411 62.92 42.9637C63.878 43.3864 64.6106 43.9922 65.1177 44.7811C65.6249 45.57 65.8785 46.5069 65.8785 47.5917C65.8785 48.6624 65.6249 49.5992 65.1177 50.4022C64.6106 51.1912 63.878 51.797 62.92 52.2196C61.9761 52.6422 60.8631 52.8536 59.5811 52.8536H56.2423V57.1222H53.4951V42.3298H59.5811ZM59.4543 50.529C60.6518 50.529 61.5605 50.2754 62.1804 49.7683C62.8002 49.2611 63.1102 48.5356 63.1102 47.5917C63.1102 46.6478 62.8002 45.9222 62.1804 45.4151C61.5605 44.9079 60.6518 44.6543 59.4543 44.6543H56.2423V50.529H59.4543Z" fill="white"/>
<path d="M68.5746 41.4422H71.2161V57.1222H68.5746V41.4422Z" fill="white"/>
<path d="M78.9941 45.7109C80.6565 45.7109 81.9244 46.1124 82.7978 46.9154C83.6854 47.7044 84.1292 48.9019 84.1292 50.5079V57.1222H81.6356V55.7487C81.3115 56.2417 80.8466 56.6221 80.2409 56.8898C79.6492 57.1434 78.9307 57.2702 78.0854 57.2702C77.2401 57.2702 76.5005 57.1293 75.8665 56.8475C75.2326 56.5517 74.7395 56.1502 74.3873 55.643C74.0492 55.1217 73.8801 54.5371 73.8801 53.889C73.8801 52.8747 74.2534 52.0646 75.0001 51.4588C75.7609 50.839 76.9513 50.529 78.5714 50.529H81.4876V50.36C81.4876 49.571 81.2482 48.9653 80.7692 48.5426C80.3043 48.12 79.6069 47.9087 78.6771 47.9087C78.0431 47.9087 77.4162 48.0073 76.7963 48.2045C76.1905 48.4017 75.6763 48.6765 75.2537 49.0287L74.2182 47.1056C74.8099 46.6548 75.5214 46.3097 76.3526 46.0702C77.1838 45.8307 78.0643 45.7109 78.9941 45.7109ZM78.6348 55.3471C79.297 55.3471 79.8816 55.1992 80.3888 54.9034C80.91 54.5934 81.2763 54.1567 81.4876 53.5932V52.283H78.7616C77.2401 52.283 76.4793 52.7831 76.4793 53.7834C76.4793 54.2624 76.6695 54.6427 77.0499 54.9245C77.4303 55.2063 77.9586 55.3471 78.6348 55.3471Z" fill="white"/>
<path d="M94.3026 56.5094C93.9927 56.763 93.6123 56.9532 93.1615 57.08C92.7247 57.2068 92.2598 57.2702 91.7668 57.2702C90.527 57.2702 89.569 56.9461 88.8928 56.2981C88.2166 55.65 87.8784 54.7061 87.8784 53.4664V48.0354H86.0188V45.9222H87.8784V43.3441H90.52V45.9222H93.5418V48.0354H90.52V53.403C90.52 53.9524 90.6538 54.3751 90.9215 54.6709C91.1891 54.9527 91.5766 55.0936 92.0837 55.0936C92.6754 55.0936 93.1685 54.9386 93.563 54.6287L94.3026 56.5094Z" fill="white"/>
<path d="M101.061 43.4287C99.9483 43.4287 99.3918 44.0344 99.3918 45.246V45.9222H102.498V48.0354H99.4763V57.1222H96.8348V48.0354H94.9752V45.9222H96.8348V45.2037C96.8348 43.9922 97.187 43.0412 97.8914 42.3509C98.5958 41.6465 99.589 41.2943 100.871 41.2943C101.885 41.2943 102.681 41.4986 103.259 41.9071L102.519 43.8936C102.069 43.5836 101.582 43.4287 101.061 43.4287Z" fill="white"/>
<path d="M109.183 57.2702C108.042 57.2702 107.013 57.0236 106.098 56.5305C105.182 56.0375 104.463 55.3542 103.942 54.4807C103.435 53.5932 103.181 52.5929 103.181 51.48C103.181 50.367 103.435 49.3738 103.942 48.5004C104.463 47.6269 105.182 46.9436 106.098 46.4505C107.013 45.9575 108.042 45.7109 109.183 45.7109C110.338 45.7109 111.374 45.9575 112.289 46.4505C113.205 46.9436 113.916 47.6269 114.424 48.5004C114.945 49.3738 115.206 50.367 115.206 51.48C115.206 52.5929 114.945 53.5932 114.424 54.4807C113.916 55.3542 113.205 56.0375 112.289 56.5305C111.374 57.0236 110.338 57.2702 109.183 57.2702ZM109.183 55.009C110.155 55.009 110.958 54.685 111.592 54.037C112.226 53.3889 112.543 52.5366 112.543 51.48C112.543 50.4234 112.226 49.571 111.592 48.923C110.958 48.2749 110.155 47.9509 109.183 47.9509C108.211 47.9509 107.408 48.2749 106.774 48.923C106.154 49.571 105.844 50.4234 105.844 51.48C105.844 52.5366 106.154 53.3889 106.774 54.037C107.408 54.685 108.211 55.009 109.183 55.009Z" fill="white"/>
<path d="M120.246 47.486C121.007 46.3026 122.345 45.7109 124.261 45.7109V48.2256C124.036 48.1834 123.832 48.1622 123.648 48.1622C122.62 48.1622 121.817 48.4651 121.239 49.0709C120.662 49.6626 120.373 50.522 120.373 51.649V57.1222H117.731V45.8377H120.246V47.486Z" fill="white"/>
<path d="M140.745 45.7109C142.168 45.7109 143.295 46.1265 144.126 46.9577C144.957 47.7748 145.373 49.0075 145.373 50.6558V57.1222H142.732V50.9939C142.732 50.0078 142.513 49.2682 142.076 48.7751C141.64 48.2679 141.013 48.0143 140.196 48.0143C139.308 48.0143 138.597 48.3102 138.061 48.9019C137.526 49.4795 137.258 50.3107 137.258 51.3954V57.1222H134.617V50.9939C134.617 50.0078 134.398 49.2682 133.962 48.7751C133.525 48.2679 132.898 48.0143 132.081 48.0143C131.179 48.0143 130.461 48.3031 129.925 48.8807C129.404 49.4583 129.144 50.2966 129.144 51.3954V57.1222H126.502V45.8377H129.017V47.2747C129.439 46.7675 129.968 46.3801 130.602 46.1124C131.236 45.8448 131.94 45.7109 132.715 45.7109C133.56 45.7109 134.307 45.8729 134.955 46.197C135.617 46.5069 136.138 46.9718 136.519 47.5917C136.984 47 137.582 46.5421 138.315 46.2181C139.048 45.88 139.858 45.7109 140.745 45.7109Z" fill="white"/>
<g opacity="0.7">
<path d="M54.0886 11.6836H51.5527V10.7644H57.6705V11.6836H55.1346V18.1606H54.0886V11.6836Z" fill="white"/>
<path d="M61.6635 12.5078C62.375 12.5078 62.9385 12.7156 63.3541 13.1312C63.7767 13.5397 63.9881 14.142 63.9881 14.938V18.1606H62.9737V15.0542C62.9737 14.5118 62.8434 14.1032 62.5828 13.8285C62.3221 13.5538 61.9488 13.4164 61.4628 13.4164C60.9133 13.4164 60.4801 13.5785 60.1631 13.9025C59.8462 14.2195 59.6877 14.6773 59.6877 15.2761V18.1606H58.6733V10.3206H59.6877V13.3531C59.899 13.0854 60.1737 12.8776 60.5118 12.7297C60.857 12.5817 61.2409 12.5078 61.6635 12.5078Z" fill="white"/>
<path d="M70.9573 15.3923C70.9573 15.4698 70.9503 15.5719 70.9362 15.6987H66.3928C66.4562 16.1918 66.6711 16.5898 67.0373 16.8927C67.4107 17.1885 67.8721 17.3364 68.4215 17.3364C69.0907 17.3364 69.6295 17.111 70.0381 16.6602L70.5981 17.3153C70.3445 17.6112 70.0275 17.8366 69.6472 17.9915C69.2738 18.1465 68.8547 18.224 68.3898 18.224C67.7981 18.224 67.2733 18.1042 66.8155 17.8648C66.3576 17.6182 66.0019 17.2766 65.7483 16.8398C65.5017 16.4031 65.3785 15.91 65.3785 15.3606C65.3785 14.8182 65.4982 14.3286 65.7377 13.8919C65.9843 13.4552 66.3189 13.1171 66.7415 12.8776C67.1712 12.631 67.6537 12.5078 68.189 12.5078C68.7244 12.5078 69.1999 12.631 69.6155 12.8776C70.0381 13.1171 70.3656 13.4552 70.5981 13.8919C70.8376 14.3286 70.9573 14.8288 70.9573 15.3923ZM68.189 13.3636C67.703 13.3636 67.2945 13.5115 66.9634 13.8074C66.6394 14.1032 66.4492 14.4907 66.3928 14.9697H69.9853C69.9289 14.4977 69.7352 14.1138 69.4041 13.818C69.0801 13.5151 68.6751 13.3636 68.189 13.3636Z" fill="white"/>
<path d="M82.2087 18.1606L82.1981 12.7719L79.5249 17.2625H79.0389L76.3657 12.8036V18.1606H75.3513V10.7644H76.2177L79.303 15.9629L82.3461 10.7644H83.2125L83.223 18.1606H82.2087Z" fill="white"/>
<path d="M85.2948 12.5606H86.3091V18.1606H85.2948V12.5606ZM85.802 11.4829C85.6047 11.4829 85.4392 11.4195 85.3054 11.2927C85.1786 11.1659 85.1152 11.0109 85.1152 10.8278C85.1152 10.6446 85.1786 10.4897 85.3054 10.3629C85.4392 10.229 85.6047 10.1621 85.802 10.1621C85.9992 10.1621 86.1612 10.2255 86.288 10.3523C86.4218 10.472 86.4888 10.6235 86.4888 10.8066C86.4888 10.9968 86.4218 11.1588 86.288 11.2927C86.1612 11.4195 85.9992 11.4829 85.802 11.4829Z" fill="white"/>
<path d="M93.5289 10.3206V18.1606H92.5568V17.2731C92.3314 17.583 92.0461 17.819 91.701 17.981C91.3558 18.143 90.9754 18.224 90.5598 18.224C90.0174 18.224 89.5314 18.1042 89.1017 17.8648C88.672 17.6253 88.3339 17.2907 88.0874 16.861C87.8479 16.4242 87.7281 15.9241 87.7281 15.3606C87.7281 14.7971 87.8479 14.3005 88.0874 13.8708C88.3339 13.4411 88.672 13.1065 89.1017 12.867C89.5314 12.6275 90.0174 12.5078 90.5598 12.5078C90.9613 12.5078 91.3311 12.5853 91.6693 12.7402C92.0074 12.8881 92.2891 13.11 92.5145 13.4059V10.3206H93.5289ZM90.6444 17.3364C90.9966 17.3364 91.3171 17.2554 91.6059 17.0934C91.8947 16.9244 92.1201 16.6919 92.2821 16.3961C92.4441 16.0932 92.5251 15.748 92.5251 15.3606C92.5251 14.9732 92.4441 14.6315 92.2821 14.3357C92.1201 14.0328 91.8947 13.8003 91.6059 13.6383C91.3171 13.4763 90.9966 13.3953 90.6444 13.3953C90.2851 13.3953 89.9611 13.4763 89.6723 13.6383C89.3905 13.8003 89.1651 14.0328 88.996 14.3357C88.834 14.6315 88.753 14.9732 88.753 15.3606C88.753 15.748 88.834 16.0932 88.996 16.3961C89.1651 16.6919 89.3905 16.9244 89.6723 17.0934C89.9611 17.2554 90.2851 17.3364 90.6444 17.3364Z" fill="white"/>
<path d="M100.731 10.3206V18.1606H99.759V17.2731C99.5336 17.583 99.2484 17.819 98.9032 17.981C98.558 18.143 98.1777 18.224 97.7621 18.224C97.2197 18.224 96.7336 18.1042 96.304 17.8648C95.8743 17.6253 95.5362 17.2907 95.2896 16.861C95.0501 16.4242 94.9304 15.9241 94.9304 15.3606C94.9304 14.7971 95.0501 14.3005 95.2896 13.8708C95.5362 13.4411 95.8743 13.1065 96.304 12.867C96.7336 12.6275 97.2197 12.5078 97.7621 12.5078C98.1636 12.5078 98.5334 12.5853 98.8715 12.7402C99.2096 12.8881 99.4914 13.11 99.7168 13.4059V10.3206H100.731ZM97.8466 17.3364C98.1988 17.3364 98.5193 17.2554 98.8081 17.0934C99.0969 16.9244 99.3223 16.6919 99.4843 16.3961C99.6463 16.0932 99.7273 15.748 99.7273 15.3606C99.7273 14.9732 99.6463 14.6315 99.4843 14.3357C99.3223 14.0328 99.0969 13.8003 98.8081 13.6383C98.5193 13.4763 98.1988 13.3953 97.8466 13.3953C97.4873 13.3953 97.1633 13.4763 96.8745 13.6383C96.5928 13.8003 96.3673 14.0328 96.1983 14.3357C96.0363 14.6315 95.9553 14.9732 95.9553 15.3606C95.9553 15.748 96.0363 16.0932 96.1983 16.3961C96.3673 16.6919 96.5928 16.9244 96.8745 17.0934C97.1633 17.2554 97.4873 17.3364 97.8466 17.3364Z" fill="white"/>
<path d="M102.65 10.3206H103.665V18.1606H102.65V10.3206Z" fill="white"/>
<path d="M110.663 15.3923C110.663 15.4698 110.655 15.5719 110.641 15.6987H106.098C106.161 16.1918 106.376 16.5898 106.743 16.8927C107.116 17.1885 107.577 17.3364 108.127 17.3364C108.796 17.3364 109.335 17.111 109.743 16.6602L110.303 17.3153C110.05 17.6112 109.733 17.8366 109.352 17.9915C108.979 18.1465 108.56 18.224 108.095 18.224C107.503 18.224 106.979 18.1042 106.521 17.8648C106.063 17.6182 105.707 17.2766 105.453 16.8398C105.207 16.4031 105.084 15.91 105.084 15.3606C105.084 14.8182 105.203 14.3286 105.443 13.8919C105.689 13.4552 106.024 13.1171 106.447 12.8776C106.876 12.631 107.359 12.5078 107.894 12.5078C108.43 12.5078 108.905 12.631 109.321 12.8776C109.743 13.1171 110.071 13.4552 110.303 13.8919C110.543 14.3286 110.663 14.8288 110.663 15.3923ZM107.894 13.3636C107.408 13.3636 107 13.5115 106.669 13.8074C106.345 14.1032 106.154 14.4907 106.098 14.9697H109.69C109.634 14.4977 109.44 14.1138 109.109 13.818C108.785 13.5151 108.38 13.3636 107.894 13.3636Z" fill="white"/>
<path d="M120.424 17.2414V18.1606H115.057V10.7644H120.276V11.6836H116.113V13.9553H119.822V14.8534H116.113V17.2414H120.424Z" fill="white"/>
<path d="M123.954 12.5078C124.729 12.5078 125.321 12.698 125.729 13.0783C126.145 13.4587 126.353 14.0258 126.353 14.7795V18.1606H125.391V17.421C125.222 17.6816 124.979 17.8824 124.662 18.0232C124.352 18.1571 123.982 18.224 123.553 18.224C122.926 18.224 122.422 18.0725 122.042 17.7697C121.668 17.4668 121.482 17.0688 121.482 16.5757C121.482 16.0826 121.661 15.6881 122.02 15.3923C122.38 15.0894 122.95 14.938 123.732 14.938H125.338V14.7372C125.338 14.3005 125.211 13.9659 124.958 13.7334C124.704 13.501 124.331 13.3848 123.838 13.3848C123.507 13.3848 123.183 13.4411 122.866 13.5538C122.549 13.6595 122.281 13.8039 122.063 13.987L121.64 13.2263C121.929 12.9938 122.274 12.8177 122.676 12.698C123.077 12.5712 123.503 12.5078 123.954 12.5078ZM123.722 17.4421C124.109 17.4421 124.444 17.3576 124.725 17.1885C125.007 17.0124 125.211 16.7659 125.338 16.4489V15.667H123.774C122.915 15.667 122.485 15.9558 122.485 16.5334C122.485 16.8152 122.595 17.0371 122.813 17.1991C123.031 17.3611 123.334 17.4421 123.722 17.4421Z" fill="white"/>
<path d="M129.836 18.224C129.378 18.224 128.938 18.1641 128.515 18.0444C128.092 17.9176 127.761 17.7591 127.522 17.5689L127.944 16.7659C128.191 16.942 128.49 17.0829 128.842 17.1885C129.195 17.2942 129.55 17.347 129.91 17.347C130.797 17.347 131.241 17.0934 131.241 16.5863C131.241 16.4172 131.181 16.2834 131.061 16.1848C130.942 16.0861 130.79 16.0157 130.607 15.9734C130.431 15.9241 130.177 15.8713 129.846 15.8149C129.395 15.7445 129.026 15.6635 128.737 15.5719C128.455 15.4803 128.212 15.3254 128.008 15.107C127.803 14.8886 127.701 14.5822 127.701 14.1878C127.701 13.6806 127.913 13.2756 128.335 12.9727C128.758 12.6627 129.325 12.5078 130.036 12.5078C130.41 12.5078 130.783 12.5536 131.156 12.6451C131.53 12.7367 131.836 12.86 132.076 13.0149L131.642 13.818C131.185 13.5221 130.646 13.3742 130.026 13.3742C129.596 13.3742 129.269 13.4446 129.043 13.5855C128.818 13.7264 128.705 13.9131 128.705 14.1455C128.705 14.3287 128.769 14.4731 128.895 14.5787C129.022 14.6844 129.177 14.7619 129.36 14.8112C129.55 14.8605 129.815 14.9168 130.153 14.9802C130.603 15.0577 130.966 15.1422 131.241 15.2338C131.523 15.3183 131.762 15.4663 131.959 15.6776C132.157 15.8889 132.255 16.1848 132.255 16.5651C132.255 17.0723 132.037 17.4773 131.6 17.7802C131.171 18.0761 130.582 18.224 129.836 18.224Z" fill="white"/>
<path d="M136.672 17.8331C136.524 17.9598 136.341 18.0585 136.122 18.1289C135.904 18.1923 135.678 18.224 135.446 18.224C134.882 18.224 134.446 18.0725 134.136 17.7697C133.826 17.4668 133.671 17.0336 133.671 16.47V13.3953H132.72V12.5606H133.671V11.3349H134.685V12.5606H136.291V13.3953H134.685V16.4278C134.685 16.7307 134.759 16.9631 134.907 17.1251C135.062 17.2871 135.28 17.3681 135.562 17.3681C135.872 17.3681 136.136 17.2801 136.355 17.104L136.672 17.8331Z" fill="white"/>
<path d="M142.775 12.5078C143.55 12.5078 144.141 12.698 144.55 13.0783C144.965 13.4587 145.173 14.0258 145.173 14.7795V18.1606H144.212V17.421C144.043 17.6816 143.8 17.8824 143.483 18.0232C143.173 18.1571 142.803 18.224 142.373 18.224C141.746 18.224 141.243 18.0725 140.862 17.7697C140.489 17.4668 140.302 17.0688 140.302 16.5757C140.302 16.0826 140.482 15.6881 140.841 15.3923C141.2 15.0894 141.771 14.938 142.553 14.938H144.159V14.7372C144.159 14.3005 144.032 13.9659 143.779 13.7334C143.525 13.501 143.152 13.3848 142.659 13.3848C142.327 13.3848 142.003 13.4411 141.686 13.5538C141.37 13.6595 141.102 13.8039 140.883 13.987L140.461 13.2263C140.75 12.9938 141.095 12.8177 141.496 12.698C141.898 12.5712 142.324 12.5078 142.775 12.5078ZM142.542 17.4421C142.93 17.4421 143.264 17.3576 143.546 17.1885C143.828 17.0124 144.032 16.7659 144.159 16.4489V15.667H142.595C141.736 15.667 141.306 15.9558 141.306 16.5334C141.306 16.8152 141.415 17.0371 141.634 17.1991C141.852 17.3611 142.155 17.4421 142.542 17.4421Z" fill="white"/>
<path d="M150.041 12.5078C150.752 12.5078 151.316 12.7156 151.731 13.1312C152.154 13.5397 152.365 14.142 152.365 14.938V18.1606H151.351V15.0542C151.351 14.5118 151.22 14.1032 150.96 13.8285C150.699 13.5538 150.326 13.4164 149.84 13.4164C149.29 13.4164 148.857 13.5785 148.54 13.9025C148.223 14.2195 148.065 14.6773 148.065 15.2761V18.1606H147.05V12.5606H148.022V13.4059C148.227 13.1171 148.501 12.8952 148.847 12.7402C149.199 12.5853 149.597 12.5078 150.041 12.5078Z" fill="white"/>
<path d="M159.556 10.3206V18.1606H158.584V17.2731C158.359 17.583 158.074 17.819 157.728 17.981C157.383 18.143 157.003 18.224 156.587 18.224C156.045 18.224 155.559 18.1042 155.129 17.8648C154.699 17.6253 154.361 17.2907 154.115 16.861C153.875 16.4242 153.756 15.9241 153.756 15.3606C153.756 14.7971 153.875 14.3005 154.115 13.8708C154.361 13.4411 154.699 13.1065 155.129 12.867C155.559 12.6275 156.045 12.5078 156.587 12.5078C156.989 12.5078 157.359 12.5853 157.697 12.7402C158.035 12.8881 158.317 13.11 158.542 13.4059V10.3206H159.556ZM156.672 17.3364C157.024 17.3364 157.344 17.2554 157.633 17.0934C157.922 16.9244 158.147 16.6919 158.31 16.3961C158.472 16.0932 158.553 15.748 158.553 15.3606C158.553 14.9732 158.472 14.6315 158.31 14.3357C158.147 14.0328 157.922 13.8003 157.633 13.6383C157.344 13.4763 157.024 13.3953 156.672 13.3953C156.313 13.3953 155.989 13.4763 155.7 13.6383C155.418 13.8003 155.193 14.0328 155.023 14.3357C154.861 14.6315 154.78 14.9732 154.78 15.3606C154.78 15.748 154.861 16.0932 155.023 16.3961C155.193 16.6919 155.418 16.9244 155.7 17.0934C155.989 17.2554 156.313 17.3364 156.672 17.3364Z" fill="white"/>
<path d="M169.173 16.3115H165.243L164.429 18.1606H163.341L166.69 10.7644H167.736L171.096 18.1606H169.987L169.173 16.3115ZM168.804 15.4663L167.208 11.8421L165.613 15.4663H168.804Z" fill="white"/>
<path d="M174.102 11.0919C173.496 11.0919 173.193 11.4195 173.193 12.0746V12.5606H174.82V13.3953H173.214V18.1606H172.2V13.3953H171.249V12.5606H172.2V12.064C172.2 11.5075 172.362 11.0673 172.686 10.7432C173.01 10.4192 173.464 10.2572 174.049 10.2572C174.274 10.2572 174.486 10.2854 174.683 10.3417C174.88 10.3981 175.049 10.4791 175.19 10.5848L174.884 11.3561C174.651 11.18 174.39 11.0919 174.102 11.0919Z" fill="white"/>
<path d="M177.595 13.501C177.771 13.177 178.032 12.9304 178.377 12.7614C178.722 12.5923 179.141 12.5078 179.634 12.5078V13.4904C179.578 13.4834 179.5 13.4798 179.402 13.4798C178.852 13.4798 178.419 13.6454 178.102 13.9764C177.792 14.3005 177.637 14.7654 177.637 15.3712V18.1606H176.623V12.5606H177.595V13.501Z" fill="white"/>
<path d="M180.884 12.5606H181.899V18.1606H180.884V12.5606ZM181.392 11.4829C181.194 11.4829 181.029 11.4195 180.895 11.2927C180.768 11.1659 180.705 11.0109 180.705 10.8278C180.705 10.6446 180.768 10.4897 180.895 10.3629C181.029 10.229 181.194 10.1621 181.392 10.1621C181.589 10.1621 181.751 10.2255 181.878 10.3523C182.011 10.472 182.078 10.6235 182.078 10.8066C182.078 10.9968 182.011 11.1588 181.878 11.2927C181.751 11.4195 181.589 11.4829 181.392 11.4829Z" fill="white"/>
<path d="M186.276 18.224C185.706 18.224 185.195 18.1007 184.744 17.8542C184.3 17.6076 183.952 17.2695 183.698 16.8398C183.445 16.4031 183.318 15.91 183.318 15.3606C183.318 14.8112 183.445 14.3216 183.698 13.8919C183.952 13.4552 184.3 13.1171 184.744 12.8776C185.195 12.631 185.706 12.5078 186.276 12.5078C186.783 12.5078 187.234 12.6099 187.629 12.8142C188.03 13.0185 188.34 13.3143 188.559 13.7017L187.787 14.1983C187.611 13.9307 187.393 13.7299 187.132 13.5961C186.871 13.4622 186.583 13.3953 186.266 13.3953C185.899 13.3953 185.568 13.4763 185.272 13.6383C184.984 13.8003 184.755 14.0328 184.586 14.3357C184.424 14.6315 184.343 14.9732 184.343 15.3606C184.343 15.7551 184.424 16.1037 184.586 16.4066C184.755 16.7025 184.984 16.9314 185.272 17.0934C185.568 17.2554 185.899 17.3364 186.266 17.3364C186.583 17.3364 186.871 17.2695 187.132 17.1357C187.393 17.0019 187.611 16.8011 187.787 16.5334L188.559 17.0195C188.34 17.4069 188.03 17.7063 187.629 17.9176C187.234 18.1219 186.783 18.224 186.276 18.224Z" fill="white"/>
<path d="M191.911 12.5078C192.686 12.5078 193.278 12.698 193.686 13.0783C194.102 13.4587 194.309 14.0258 194.309 14.7795V18.1606H193.348V17.421C193.179 17.6816 192.936 17.8824 192.619 18.0232C192.309 18.1571 191.939 18.224 191.509 18.224C190.883 18.224 190.379 18.0725 189.999 17.7697C189.625 17.4668 189.439 17.0688 189.439 16.5757C189.439 16.0826 189.618 15.6881 189.977 15.3923C190.337 15.0894 190.907 14.938 191.689 14.938H193.295V14.7372C193.295 14.3005 193.168 13.9659 192.915 13.7334C192.661 13.501 192.288 13.3848 191.795 13.3848C191.464 13.3848 191.14 13.4411 190.823 13.5538C190.506 13.6595 190.238 13.8039 190.02 13.987L189.597 13.2263C189.886 12.9938 190.231 12.8177 190.633 12.698C191.034 12.5712 191.46 12.5078 191.911 12.5078ZM191.679 17.4421C192.066 17.4421 192.401 17.3576 192.682 17.1885C192.964 17.0124 193.168 16.7659 193.295 16.4489V15.667H191.731C190.872 15.667 190.442 15.9558 190.442 16.5334C190.442 16.8152 190.551 17.0371 190.77 17.1991C190.988 17.3611 191.291 17.4421 191.679 17.4421Z" fill="white"/>
</g>
<defs>
<clipPath id="clip0">
<rect width="37.9717" height="70" fill="white"/>
</clipPath>
</defs>
</svg>
