<svg width="18" height="18" viewBox="0 0 18 18" fill="none" xmlns="http://www.w3.org/2000/svg">
<g opacity="0.72" clip-path="url(#clip0)">
<path d="M17.9949 17.9992V17.9984H17.9994V11.3969C17.9994 8.16743 17.3042 5.67969 13.5287 5.67969C11.7137 5.67969 10.4957 6.67569 9.99845 7.61993H9.94595V5.98119H6.36621V17.9984H10.0937V12.0479C10.0937 10.4812 10.3907 8.96618 12.3309 8.96618C14.2427 8.96618 14.2712 10.7542 14.2712 12.1484V17.9992H17.9949Z" fill="white"/>
<path d="M0.297852 5.9834H4.02985V18.0006H0.297852V5.9834Z" fill="white"/>
<path d="M2.1615 0C0.96825 0 0 0.96825 0 2.1615C0 3.35475 0.96825 4.34325 2.1615 4.34325C3.35475 4.34325 4.323 3.35475 4.323 2.1615C4.32225 0.96825 3.354 0 2.1615 0V0Z" fill="white"/>
</g>
<defs>
<clipPath id="clip0">
<rect width="18" height="18" fill="white"/>
</clipPath>
</defs>
</svg>
